<svg xmlns="http://www.w3.org/2000/svg" viewBox="0 0 538.81 346.94"><defs><style>.cls-1{fill:#f9cd6b;}.cls-2{fill:#bf8217;}</style></defs><title>Artboard 29</title><g id="AB2"><path class="cls-1" d="M538.75,238l-.46.26-.55.31-.1.05c-1.14.62-3.15,1.71-6,3.2l-.78.4A947.15,947.15,0,0,1,436,284.8s-.05,0-.08,0l-6.61,2.54-.06,0q-4.89,1.86-10,3.73c-21.22,7.83-44.64,15.69-69.75,22.94h0c-18.08,5.24-37.07,10.15-56.71,14.51h0c-20.1,4.46-40.92,8.32-62.23,11.34s-43.16,5.21-65.28,6.28h0c-19.13.93-38.48,1-57.9.12a526.82,526.82,0,0,1-62.31-6.5c2.75.34,10.78.81,28.66-1.6h0c15.24-2,37.64-6.17,70-14.24h0c14.87-3.7,31.82-8.23,51.16-13.77q18.27-5.24,39.43-11.71h0q27.18-8.33,59.5-18.95h0q17.07-5.62,35.66-12,26.88-9.13,57.09-19.86h0q16-5.67,33-11.82l10.71-3.9h0q29.48-10.73,61.91-22.9h0Z"/><path class="cls-1" d="M13.82,6.72S374.89,117,538.75,238c0,0-88,24.49-181.51-42.75S13.82,6.72,13.82,6.72Z"/><path class="cls-2" d="M107.4,346.31a526.82,526.82,0,0,1-62.31-6.5h0c-.59-.07-.93-.14-1.08-.17h-.09s12.49.05,29.84-1.41h0c6.9-.58,14.56-1.39,22.52-2.54A51.43,51.43,0,0,0,107.4,346.31Z"/><path class="cls-2" d="M343.6,312.82c2.1.54,4.09.94,6,1.24-18.08,5.24-37.07,10.15-56.71,14.51h0l-.18,0-.16,0c-.63-.07-1.26-.15-1.88-.24-1.32-.17-2.61-.37-3.88-.59l-1.61-.3-1.67-.33-1.49-.33A90.5,90.5,0,0,1,268,322.37l-.9-.37c-2.33-1-4.51-2-6.55-3.05-.61-.31-1.2-.63-1.78-.95-.39-.21-.77-.42-1.14-.64l-1.11-.64c-2.19-1.28-4.18-2.59-6-3.86l-.79-.57-.93-.69c-.28-.21-.55-.41-.81-.62s-.53-.4-.78-.61l-.75-.6c-.45-.36-.87-.71-1.27-1s-1-.83-1.4-1.23l-.15-.13-.93-.85c-.88-.82-1.64-1.57-2.26-2.23l-.45-.47-.4-.42-.66-.74-.07-.08-.26-.3a2.82,2.82,0,0,0-.25-.3,1.1,1.1,0,0,1-.11-.14,1.76,1.76,0,0,0-.14-.17h0l-.59-.4-.57-.41,0,0-.62-.5-.13-.11-.49-.44c-.43-.39-.86-.81-1.3-1.27s-.84-.9-1.26-1.38q-.35-.37-.66-.78a81.45,81.45,0,0,1-6.14-8.78.41.41,0,0,1,0-.09c-2.37-3.87-4.82-8.34-7.32-13.27-.2-.4-.4-.8-.61-1.2a2.59,2.59,0,0,1-.14-.29l-.75-1.52a.83.83,0,0,1-.07-.13q-1.44-3-2.91-6.08a.61.61,0,0,1-.05-.12c-2-4.35-4.08-8.94-6.12-13.69-.25-.6-.51-1.2-.77-1.8-.51-1.2-1-2.4-1.53-3.62l-1.53-3.68c-12.18-29.57-23.92-63.56-31.49-86.39a.57.57,0,0,1,0-.14c-1.73-5.24-3.24-9.88-4.49-13.75,0-.14-.1-.28-.14-.43l-.69-2.15c-.29-.92-.56-1.78-.82-2.57-.12-.4-.24-.78-.37-1.15a.24.24,0,0,1,0-.08c-.28-.89-.53-1.69-.76-2.39-.05-.14-.09-.28-.13-.42-.12-.41-.24-.79-.35-1.12s-.25-.82-.35-1.12c-.16-.53-.26-.84-.28-.91h0q-2.81-9-6-16.92s0,0,0,0c-.42-1-.84-2.1-1.28-3.13l-.65-1.55c-.86-2-1.75-4-2.65-6,0,0,0,0,0,0-.45-1-.9-1.92-1.36-2.86h0c-.68-1.41-1.37-2.8-2.07-4.15-.47-.91-.93-1.81-1.4-2.69s-.94-1.75-1.42-2.6c-.24-.43-.48-.86-.71-1.29-.48-.84-.95-1.67-1.44-2.49h0c-.48-.82-1-1.63-1.45-2.42s-1-1.59-1.46-2.37-1-1.53-1.46-2.28c0,0,0,0,0,0-.49-.75-1-1.48-1.47-2.21q-1.86-2.74-3.72-5.28c-.49-.67-1-1.33-1.48-2a0,0,0,0,1,0,0c-.49-.65-1-1.28-1.48-1.91l-.74-.94a0,0,0,0,1,0,0A141.62,141.62,0,0,0,122,54.77l-.72-.72a115.8,115.8,0,0,0-19.46-15.61c-.73-.46-1.43-.89-2.11-1.29s-1.3-.76-1.91-1.11l-.19-.1c-1.54-.87-2.93-1.58-4.14-2.16-.75-.36-1.43-.67-2-.94-1-.44-1.77-.74-2.31-.94h0l-.29-.11c13.36,4.56,27.44,9.42,41.48,14.36l.06,0,0,0q2.37,1,4.65,2l2.26,1a1.59,1.59,0,0,0,.27.12c1.41.64,2.78,1.28,4.14,1.92l2.14,1c1.27.62,2.51,1.24,3.74,1.86.83.43,1.65.85,2.45,1.28l2,1.06,1.77,1,.19.11,1.91,1.08c1.9,1.08,3.75,2.19,5.55,3.31,1.2.75,2.37,1.5,3.53,2.26a1.5,1.5,0,0,0,.23.15l1.49,1,1.68,1.16,1.66,1.17q2.46,1.75,4.78,3.58l1.54,1.22,1.38,1.12a.69.69,0,0,0,.13.11l1.48,1.25c.49.41,1,.83,1.45,1.25.87.77,1.73,1.54,2.57,2.31l.27.25c.86.8,1.71,1.6,2.54,2.41l.39.39,1.14,1.14c.44.44.88.89,1.31,1.34l1.29,1.36c.43.45.85.91,1.27,1.37,0,0,0,0,0,0,.82.91,1.63,1.82,2.43,2.75s1.61,1.89,2.39,2.85,1.56,1.94,2.32,2.92c.39.49.76,1,1.14,1.49l0,.06,1.07,1.44c.37.5.74,1,1.1,1.52l1.09,1.53.17.24c.66,1,1.31,1.92,2,2.89l.43.64h0l1.7,2.62c.33.52.66,1,1,1.56.68,1.09,1.35,2.2,2,3.31s1.32,2.25,2,3.39l1,1.73c.66,1.15,1.29,2.32,1.92,3.51s1.26,2.38,1.89,3.59c1.26,2.42,2.49,4.9,3.71,7.44l.92,1.92C226,142.78,230,152,234.15,162q3.15,7.5,6.44,15.59l1.11,2.71,2.06,5c.06.17.13.33.2.5,3.06,7.46,6.28,15.3,9.72,23.53q.12.32.27.63,1.81,4.33,3.72,8.8,1.17,2.74,2.34,5.38c.38.85.76,1.7,1.15,2.53.29.65.59,1.28.88,1.91s.59,1.26.89,1.88q1.76,3.75,3.56,7.26c.5,1,1,2,1.5,2.92l.81,1.53c.43.8.86,1.6,1.29,2.38l.7,1.28q.54,1,1.11,2l.76,1.34q3.78,6.59,7.61,12.32c1.1,1.66,2.21,3.26,3.3,4.82.39.54.77,1.08,1.17,1.61l.92,1.26c.6.83,1.22,1.65,1.84,2.45s1.22,1.59,1.85,2.36,1.22,1.53,1.84,2.28,1.23,1.47,1.84,2.19l.89,1q.9,1.06,1.86,2.1c.6.68,1.21,1.34,1.83,2s1.22,1.28,1.83,1.91,1.21,1.23,1.82,1.83,1.21,1.18,1.81,1.75l.9.85c.6.57,1.2,1.12,1.8,1.64.3.28.6.54.9.8,1.2,1,2.38,2,3.56,3,1.8,1.46,3.58,2.8,5.34,4q1.69,1.2,3.36,2.28l1.36.87.41.26,1.44.88.16.09,1.67,1c.55.31,1.09.61,1.64.9l1.07.57c1.19.62,2.36,1.2,3.52,1.73l.86.39c.86.4,1.72.76,2.56,1.11l1.42.56c1.8.7,3.54,1.3,5.23,1.82l1,.31.93.26.17.05Z"/><path class="cls-2" d="M220.83,89.75l-26.51-20.3h0l3.32,1.28C201.82,72.73,209.71,77.69,220.83,89.75Z"/><path class="cls-2" d="M177.48,281.06c-.85-.52-55.55-34.32-72.51-59.06S80.23,144.25,67.42,96.56c-2.19-8.14-4.52-16.13-7.07-23.79h0q-1.55-4.67-3.21-9.15C52,49.67,45.91,37.14,38.51,27.14A69.21,69.21,0,0,0,25.69,13.69s0,0-.05,0a52.3,52.3,0,0,0-4.92-3.43l0,0a47.74,47.74,0,0,0-6.84-3.47l0,0c15.67,5.58,63.11,24,81.92,47.8,4.8,6.11,10.57,18.62,16.81,34.81.32.83.65,1.68,1,2.53,8.72,22.9,18.29,52.55,27.46,81.7.91,2.9,1.82,5.78,2.72,8.66,5.44,17.34,10.69,34.24,15.49,49.14,7.57,23.57,14,42.15,18.24,49.6A.31.31,0,0,0,177.48,281.06Z"/><path class="cls-2" d="M230.59,339.91c-21.33,3-43.16,5.21-65.28,6.28h0c-18.67-6.95-28-16.89-30-19.17l.52-.17c2.72-.9,5.37-1.85,7.94-2.88h0c21.64-8.64,37.21-22.07,33.67-42.9,5,8.75,10.46,19.23,17.49,29.13C203.69,322.49,214.84,333.87,230.59,339.91Z"/><path class="cls-2" d="M349.56,314.06c-18.08,5.24-37.07,10.15-56.71,14.51h0l-.17,0-.16,0c-.63-.07-1.26-.15-1.88-.24-1.32-.17-2.61-.37-3.88-.59l-1.61-.3-1.67-.33-1.49-.33A90.5,90.5,0,0,1,268,322.37l-.9-.37c-2.33-1-4.51-2-6.55-3.05-.61-.31-1.2-.63-1.78-.95-.39-.21-.77-.42-1.14-.64l-1.11-.64c-2.19-1.28-4.18-2.59-6-3.86l-.79-.57-.93-.69c-.28-.21-.55-.41-.81-.62s-.53-.4-.78-.61l-.75-.6c-.45-.36-.87-.71-1.27-1s-1-.83-1.4-1.23l-.15-.13-.93-.85c-.88-.82-1.64-1.57-2.26-2.23l-.45-.47-.4-.42-.66-.74-.07-.08-.26-.3a2.82,2.82,0,0,0-.25-.3,1.1,1.1,0,0,1-.11-.14l-.14-.17h0l-.59-.4-.57-.41,0,0-.62-.5-.13-.11-.49-.44c-.43-.38-.87-.81-1.31-1.27l-.27-.3c-.33-.35-.65-.71-1-1.08s-.45-.51-.66-.78a77.4,77.4,0,0,1-6.14-8.78.41.41,0,0,1,0-.09c-2.38-3.87-4.83-8.34-7.32-13.27-.2-.4-.4-.8-.61-1.2a2.59,2.59,0,0,1-.14-.29l-.75-1.52a.83.83,0,0,1-.07-.13q-1.46-3-2.91-6.08a.61.61,0,0,1-.05-.12c-2-4.35-4.09-8.93-6.12-13.69-.25-.6-.51-1.2-.77-1.8-.51-1.2-1-2.4-1.53-3.62l-1.53-3.68c-.41-1-.83-2-1.24-3-8.46-20.76-16.63-43.39-23.28-62.68-2.58-7.5-4.93-14.49-7-20.67a.57.57,0,0,1,0-.14c-1.74-5.24-3.25-9.88-4.49-13.75,0-.14-.1-.28-.14-.43-.24-.74-.48-1.46-.69-2.15-.3-.91-.57-1.77-.82-2.57-.12-.4-.24-.78-.37-1.15a.24.24,0,0,1,0-.08c-.29-.89-.54-1.69-.76-2.39-.05-.14-.09-.28-.13-.42-.13-.41-.25-.78-.35-1.12s-.26-.82-.35-1.12c-.17-.53-.26-.84-.28-.91h0c-1.87-6-3.88-11.62-6-16.92,0,0,0,0,0,0-.42-1-.84-2.1-1.28-3.13l-.65-1.55c-.88-2-1.76-4-2.65-6,0,0,0,0,0,0-.45-1-.9-1.92-1.36-2.86h0q-1-2.12-2.07-4.15c-.47-.91-.93-1.81-1.4-2.69s-.94-1.75-1.42-2.6c-.24-.43-.48-.86-.71-1.29-.48-.84-.95-1.67-1.44-2.49h0c-.48-.82-1-1.63-1.45-2.42s-1-1.59-1.46-2.37-1-1.53-1.46-2.28c0,0,0,0,0,0-.49-.75-1-1.48-1.47-2.21q-1.86-2.74-3.72-5.28c-.49-.67-1-1.33-1.48-2a0,0,0,0,1,0,0c-.49-.65-1-1.28-1.48-1.91l-.74-.94a0,0,0,0,1,0,0A141.62,141.62,0,0,0,122,54.77l-.72-.72a115.8,115.8,0,0,0-19.46-15.61l-2.11-1.29L97.8,36l-.19-.1c-1.55-.86-2.94-1.58-4.14-2.16-.75-.36-1.43-.67-2-.94-1-.43-1.77-.74-2.31-.94h0l-.29-.1h0l-.13-.05.21.06h0q7.26,2.12,14,4.3c6.2,2,12,4,17.56,6.13l.2.07q5,1.89,9.69,3.85l.06,0,0,0q2.37,1,4.65,2l2.26,1a1.59,1.59,0,0,0,.27.12c1.41.64,2.78,1.28,4.14,1.92l2.14,1c1.27.62,2.51,1.24,3.74,1.86.83.43,1.65.85,2.45,1.28l2,1.06,1.77,1,.19.11,1.91,1.08c1.91,1.09,3.75,2.19,5.55,3.31,1.2.75,2.37,1.5,3.53,2.26a1.5,1.5,0,0,0,.23.15l1.49,1,1.68,1.16,1.66,1.17c1.63,1.18,3.23,2.37,4.78,3.58l1.54,1.22,1.38,1.12a.69.69,0,0,0,.13.11l1.48,1.25c.49.41,1,.83,1.45,1.25.87.77,1.73,1.54,2.57,2.31l.27.25c.86.8,1.71,1.6,2.54,2.41l.39.39,1.14,1.14c.44.44.88.89,1.31,1.34l1.29,1.36c.43.45.85.91,1.27,1.37,0,0,0,0,0,0,.82.91,1.63,1.82,2.43,2.75s1.61,1.89,2.39,2.85,1.56,1.94,2.32,2.92c.39.49.76,1,1.14,1.49l0,.06,1.07,1.44c.37.5.74,1,1.1,1.52l1.09,1.53.17.24c.66,1,1.31,1.92,2,2.89l.43.64h0l1.7,2.62c.32.52.65,1,1,1.56.68,1.09,1.35,2.2,2,3.31s1.32,2.25,2,3.39l1,1.73q1,1.73,1.92,3.51c.63,1.18,1.26,2.38,1.89,3.59,1.25,2.43,2.48,4.91,3.71,7.44l.92,1.92C226,142.79,230,152,234.15,162q3.14,7.5,6.44,15.59l1.11,2.71,2.06,5c.06.17.13.33.2.5,3,7.47,6.27,15.3,9.72,23.53q.12.32.27.63,1.8,4.32,3.71,8.8,1.17,2.74,2.35,5.38c.38.85.76,1.7,1.15,2.53.29.64.58,1.28.88,1.91s.59,1.26.89,1.88q1.76,3.75,3.56,7.26c.5,1,1,2,1.5,2.92l.81,1.53c.43.8.86,1.6,1.29,2.38.23.43.46.86.7,1.28q.54,1,1.11,2l.76,1.34q3.78,6.59,7.61,12.32c1.1,1.66,2.2,3.26,3.3,4.82.39.54.77,1.08,1.17,1.61s.6.85.92,1.26c.6.83,1.22,1.65,1.84,2.45s1.22,1.59,1.85,2.36,1.21,1.53,1.84,2.28,1.21,1.47,1.84,2.19c.28.35.58.69.88,1h0q.9,1.06,1.86,2.1c.6.68,1.21,1.34,1.83,2s1.21,1.29,1.83,1.91,1.21,1.24,1.82,1.83,1.21,1.2,1.81,1.75c.3.3.6.59.9.85.6.57,1.2,1.12,1.8,1.64.3.28.6.54.9.8,1,.92,2.07,1.79,3.1,2.63l.46.37c1.8,1.46,3.58,2.8,5.34,4,1.13.8,2.25,1.57,3.36,2.28l1.36.87.41.26,1.44.88.16.09,1.67,1,1.64.9c.36.2.71.39,1.07.57,1.19.62,2.36,1.2,3.52,1.73.29.14.57.27.86.39.86.4,1.72.76,2.56,1.11l1.42.56c1.8.7,3.54,1.3,5.23,1.82l1,.31.93.26.17.05,1.19.31C345.7,313.36,347.69,313.76,349.56,314.06Z"/><path class="cls-2" d="M220.83,89.75l-26.51-20.3h0a16,16,0,0,1,3.32,1.28C201.82,72.73,209.71,77.69,220.83,89.75Z"/><path class="cls-2" d="M369.68,203.69c-7.4-5-12.15-8.25-12.44-8.45.15.08,1.43.77,3.72,1.78Z"/><path class="cls-2" d="M457.24,272.92c-3.91,2.21-14.65,8.12-30.76,15.83-95.34,35-135.71-82.84-135.71-82.84-29.35-64-53.27-98.07-69.94-116.16-11.12-12.06-19-17-23.16-19,25.29,9.76,44,17.92,48,22,0,0,29.27,15,53.8,49.84l11.21,15.92L324,177.43S409.05,298,457.24,272.92Z"/><path class="cls-2" d="M458.8,272a157.51,157.51,0,0,1-32.32,16.71c16.11-7.71,26.85-13.62,30.76-15.83l.5-.27c.19-.12.36-.21.51-.29l.44-.26Z"/><path class="cls-2" d="M538.81,238l-.06,0c-2,1.13-50.92,29.25-77.48,19.94-20.31-7.11-68.63-38.79-91.55-54.21l0,0c-7.4-5-12.15-8.25-12.44-8.45.15.08,1.43.77,3.72,1.78,6.69,2.92,22,8.5,43.18,9.25A137.52,137.52,0,0,0,430,204.72c43.52-6.72,76,9.5,76,9.5s8.17,5.54,8.7,8C514.68,222.26,535.25,224.5,538.81,238Z"/></g></svg>